<svg xmlns="http://www.w3.org/2000/svg" viewBox="0 0 1000 330"><style>text{font-family:-apple-system,BlinkMacSystemFont,"Noto Sans JP",sans-serif;fill:#171717}.h{font-size:27px;font-weight:700}.s{font-size:20px}.box{fill:#fff;stroke:#222;stroke-width:3}.green{fill:#4f8047}.light{fill:#e8f1e5}.gray{fill:#777}.line{stroke:#222;stroke-width:5;fill:none}.ray{stroke:#d15a35;stroke-width:7;fill:none}</style><rect width="100%" height="100%" fill="#fff"/><defs><marker id="t" markerWidth="12" markerHeight="12" refX="10" refY="6" orient="auto"><path d="M0 0L12 6L0 12Z" fill="#222"/></marker></defs><rect class="box" x="40" y="95" width="260" height="125"/><text class="h" x="170" y="145" text-anchor="middle">64bitシード</text><text class="s" x="170" y="185" text-anchor="middle">同じ数字なら同じ世界</text><line class="line" x1="325" y1="155" x2="545" y2="155" marker-end="url(#t)"/><text class="s" x="430" y="125" text-anchor="middle">高さと木を計算</text><rect x="600" y="45" width="58" height="58" fill="#d9efff" stroke="#fff" stroke-width="2"/><rect x="658" y="45" width="58" height="58" fill="#d9efff" stroke="#fff" stroke-width="2"/><rect x="716" y="45" width="58" height="58" fill="#d9efff" stroke="#fff" stroke-width="2"/><rect x="774" y="45" width="58" height="58" fill="#d9efff" stroke="#fff" stroke-width="2"/><rect x="832" y="45" width="58" height="58" fill="#d9efff" stroke="#fff" stroke-width="2"/><rect x="890" y="45" width="58" height="58" fill="#d9efff" stroke="#fff" stroke-width="2"/><rect x="600" y="103" width="58" height="58" fill="#5e9950" stroke="#fff" stroke-width="2"/><rect x="658" y="103" width="58" height="58" fill="#5e9950" stroke="#fff" stroke-width="2"/><rect x="716" y="103" width="58" height="58" fill="#5e9950" stroke="#fff" stroke-width="2"/><rect x="774" y="103" width="58" height="58" fill="#5e9950" stroke="#fff" stroke-width="2"/><rect x="832" y="103" width="58" height="58" fill="#5e9950" stroke="#fff" stroke-width="2"/><rect x="890" y="103" width="58" height="58" fill="#5e9950" stroke="#fff" stroke-width="2"/><rect x="600" y="161" width="58" height="58" fill="#8c5d3c" stroke="#fff" stroke-width="2"/><rect x="658" y="161" width="58" height="58" fill="#8c5d3c" stroke="#fff" stroke-width="2"/><rect x="716" y="161" width="58" height="58" fill="#8c5d3c" stroke="#fff" stroke-width="2"/><rect x="774" y="161" width="58" height="58" fill="#8c5d3c" stroke="#fff" stroke-width="2"/><rect x="832" y="161" width="58" height="58" fill="#8c5d3c" stroke="#fff" stroke-width="2"/><rect x="890" y="161" width="58" height="58" fill="#8c5d3c" stroke="#fff" stroke-width="2"/><rect x="600" y="219" width="58" height="58" fill="#777" stroke="#fff" stroke-width="2"/><rect x="658" y="219" width="58" height="58" fill="#777" stroke="#fff" stroke-width="2"/><rect x="716" y="219" width="58" height="58" fill="#777" stroke="#fff" stroke-width="2"/><rect x="774" y="219" width="58" height="58" fill="#777" stroke="#fff" stroke-width="2"/><rect x="832" y="219" width="58" height="58" fill="#777" stroke="#fff" stroke-width="2"/><rect x="890" y="219" width="58" height="58" fill="#777" stroke="#fff" stroke-width="2"/><text class="s" x="775" y="305" text-anchor="middle">草・土・石を正方形ブロックとして配置</text></svg>